Genre: Comedy
Language:English 
http://www.imdb.com/title/tt1605630/
Source:1280x720p.RIP.DIVX.[Eng]-DUQA Thanks!
Encoder:Tony

Format : AVI
Format/Info : Audio Video Interleave
File size : 1.20 GiB
Duration : 1h 44mn
Overall bit rate : 1 648 Kbps

Video
ID : 0
Format : MPEG-4 Visual
Format profile : Advanced Simple@L5
Format settings, BVOP : 1
Format settings, QPel : No
Format settings, GMC : No warppoints
Format settings, Matrix : Default (H.263)
Codec ID : XVID
Codec ID/Hint : XviD
Duration : 1h 44mn
Bit rate : 1 445 Kbps
Width : 640 pixels
Height : 344 pixels
Display aspect ratio : 1.860
Frame rate : 29.970 fps
Color space : YUV
Chroma subsampling : 4:2:0
Bit depth : 8 bits
Scan type : Progressive
Compression mode : Lossy
Bits/(Pixel*Frame) : 0.219
Stream size : 1.05 GiB (88%)
Writing library : XviD 1.2.1 (UTC 2008-12-04)

Audio
ID : 1
Format : AC-3
Format/Info : Audio Coding 3
Mode extension : CM (complete main)
Codec ID : 2000
Duration : 1h 44mn
Bit rate mode : Constant
Bit rate : 192 Kbps
Channel(s) : 2 channels
Channel positions : Front: L R
Sampling rate : 48.0 KHz
Bit depth : 16 bits
Compression mode : Lossy
Stream size : 143 MiB (12%)
Alignment : Aligned on interleaves
Interleave, duration : 33 ms (1.00 video frame)
Interleave, preload duration : 512 ms


Plot:
Jim, Michelle, Stifler, and their friends reunite in East Great Falls, Michigan for their high school reunion.
 
http://img844.imageshack.us/img844/4079/vlcsnap2012051614h39m46.png 
http://img827.imageshack.us/img827/909/vlcsnap2012051614h39m57.png 
http://img15.imageshack.us/img15/3819/vlcsnap2012051614h40m02.png 
http://img535.imageshack.us/img535/7526/vlcsnap2012051614h40m07.png 
http://img190.imageshack.us/img190/3615/vlcsnap2012051614h41m48.png